<svg xmlns="http://www.w3.org/2000/svg" width="20" height="20" viewBox="0 0 20 20">
  <defs>
    <linearGradient id="g" x1="3" y1="2" x2="17" y2="18" gradientUnits="userSpaceOnUse">
      <stop offset="0" stop-color="#ffb000"/>
      <stop offset="1" stop-color="#ff5a1f"/>
    </linearGradient>
  </defs>
  <path fill="url(#g)" d="M4.5 3.2h11A2.5 2.5 0 0 1 18 5.7v6.7a2.5 2.5 0 0 1-2.5 2.5H9.2l-4.6 2.9a.7.7 0 0 1-1.1-.6v-2.5A2.5 2.5 0 0 1 2 12.4V5.7a2.5 2.5 0 0 1 2.5-2.5Z"/>
  <path fill="#fff" d="M7.2 11.8h-1l2.1-5.6h1.1l2.1 5.6h-1l-.5-1.4H7.7l-.5 1.4Zm.8-2.2h1.7l-.8-2.3h-.1L8 9.6Zm5.5 2.2h-1V6.2h1v5.6Z"/>
  <path fill="#fff7d6" d="M15.2 4.5 15.7 6l1.5.5-1.5.5-.5 1.5-.5-1.5-1.5-.5 1.5-.5.5-1.5Z"/>
</svg>
